<mxfile host="app.diagrams.net" modified="2023-10-01T14:52:40.976Z" agent="Mozilla/5.0 (Macintosh; Intel Mac OS X 10_15_7) AppleWebKit/537.36 (KHTML, like Gecko) Chrome/117.0.0.0 Safari/537.36" etag="5Q6yP0kudcee61RWUAT8" version="21.6.2" type="device">
  <diagram name="Page-1" id="5z5_8dt1fizVK_PCdYBf">
    <mxGraphModel dx="954" dy="523" grid="1" gridSize="10" guides="1" tooltips="1" connect="1" arrows="1" fold="1" page="1" pageScale="1" pageWidth="850" pageHeight="1100" math="0" shadow="0">
      <root>
        <mxCell id="0" />
        <mxCell id="1" parent="0" />
        <mxCell id="i9YZYnY12w-RiFO6jAS7-3" value="" style="sketch=0;html=1;dashed=0;whitespace=wrap;fillColor=#2875E2;strokeColor=#ffffff;points=[[0.005,0.63,0],[0.1,0.2,0],[0.9,0.2,0],[0.5,0,0],[0.995,0.63,0],[0.72,0.99,0],[0.5,1,0],[0.28,0.99,0]];verticalLabelPosition=bottom;align=center;verticalAlign=top;shape=mxgraph.kubernetes.icon;prIcon=pod" vertex="1" parent="1">
          <mxGeometry x="180" y="370" width="50" height="48" as="geometry" />
        </mxCell>
        <mxCell id="i9YZYnY12w-RiFO6jAS7-4" value="" style="sketch=0;html=1;dashed=0;whitespace=wrap;fillColor=#2875E2;strokeColor=#ffffff;points=[[0.005,0.63,0],[0.1,0.2,0],[0.9,0.2,0],[0.5,0,0],[0.995,0.63,0],[0.72,0.99,0],[0.5,1,0],[0.28,0.99,0]];verticalLabelPosition=bottom;align=center;verticalAlign=top;shape=mxgraph.kubernetes.icon;prIcon=pod" vertex="1" parent="1">
          <mxGeometry x="340" y="190" width="50" height="48" as="geometry" />
        </mxCell>
        <mxCell id="i9YZYnY12w-RiFO6jAS7-5" value="" style="sketch=0;html=1;dashed=0;whitespace=wrap;fillColor=#2875E2;strokeColor=#ffffff;points=[[0.005,0.63,0],[0.1,0.2,0],[0.9,0.2,0],[0.5,0,0],[0.995,0.63,0],[0.72,0.99,0],[0.5,1,0],[0.28,0.99,0]];verticalLabelPosition=bottom;align=center;verticalAlign=top;shape=mxgraph.kubernetes.icon;prIcon=pod" vertex="1" parent="1">
          <mxGeometry x="400" y="190" width="50" height="48" as="geometry" />
        </mxCell>
        <mxCell id="i9YZYnY12w-RiFO6jAS7-6" value="" style="sketch=0;html=1;dashed=0;whitespace=wrap;fillColor=#2875E2;strokeColor=#ffffff;points=[[0.005,0.63,0],[0.1,0.2,0],[0.9,0.2,0],[0.5,0,0],[0.995,0.63,0],[0.72,0.99,0],[0.5,1,0],[0.28,0.99,0]];verticalLabelPosition=bottom;align=center;verticalAlign=top;shape=mxgraph.kubernetes.icon;prIcon=pod" vertex="1" parent="1">
          <mxGeometry x="460" y="190" width="50" height="48" as="geometry" />
        </mxCell>
        <mxCell id="i9YZYnY12w-RiFO6jAS7-7" value="" style="sketch=0;html=1;dashed=0;whitespace=wrap;fillColor=#2875E2;strokeColor=#ffffff;points=[[0.005,0.63,0],[0.1,0.2,0],[0.9,0.2,0],[0.5,0,0],[0.995,0.63,0],[0.72,0.99,0],[0.5,1,0],[0.28,0.99,0]];verticalLabelPosition=bottom;align=center;verticalAlign=top;shape=mxgraph.kubernetes.icon;prIcon=pod" vertex="1" parent="1">
          <mxGeometry x="607.5" y="370" width="50" height="48" as="geometry" />
        </mxCell>
        <mxCell id="i9YZYnY12w-RiFO6jAS7-8" value="" style="sketch=0;outlineConnect=0;fontColor=#232F3E;gradientColor=none;fillColor=#2E27AD;strokeColor=none;dashed=0;verticalLabelPosition=bottom;verticalAlign=top;align=center;html=1;fontSize=12;fontStyle=0;aspect=fixed;pointerEvents=1;shape=mxgraph.aws4.rds_postgresql_instance;" vertex="1" parent="1">
          <mxGeometry x="386" y="418" width="78" height="78" as="geometry" />
        </mxCell>
        <mxCell id="i9YZYnY12w-RiFO6jAS7-10" value="&lt;b&gt;&lt;font style=&quot;font-size: 14px;&quot;&gt;pondpulse app deployment&lt;/font&gt;&lt;/b&gt;" style="rounded=1;arcSize=9;align=center;spacingLeft=5;strokeColor=#4C9AFF;html=1;strokeWidth=2;fontSize=12" vertex="1" parent="1">
          <mxGeometry x="325" y="140" width="200" height="40" as="geometry" />
        </mxCell>
        <mxCell id="i9YZYnY12w-RiFO6jAS7-11" value="&lt;b&gt;&lt;font style=&quot;font-size: 14px;&quot;&gt;flytrap app&lt;br&gt;&lt;/font&gt;&lt;/b&gt;" style="rounded=1;arcSize=9;align=center;spacingLeft=5;strokeColor=#4C9AFF;html=1;strokeWidth=2;fontSize=12" vertex="1" parent="1">
          <mxGeometry x="162.5" y="320" width="85" height="40" as="geometry" />
        </mxCell>
        <mxCell id="i9YZYnY12w-RiFO6jAS7-12" value="&lt;b&gt;&lt;font style=&quot;font-size: 14px;&quot;&gt;postgribbit app&lt;br&gt;&lt;/font&gt;&lt;/b&gt;" style="rounded=1;arcSize=9;align=center;spacingLeft=5;strokeColor=#4C9AFF;html=1;strokeWidth=2;fontSize=12" vertex="1" parent="1">
          <mxGeometry x="590" y="320" width="117.5" height="40" as="geometry" />
        </mxCell>
        <mxCell id="i9YZYnY12w-RiFO6jAS7-13" value="" style="endArrow=classic;html=1;rounded=0;" edge="1" parent="1">
          <mxGeometry width="50" height="50" relative="1" as="geometry">
            <mxPoint x="240" y="384" as="sourcePoint" />
            <mxPoint x="350" y="300" as="targetPoint" />
          </mxGeometry>
        </mxCell>
        <mxCell id="i9YZYnY12w-RiFO6jAS7-18" value="GET / POST API" style="edgeLabel;html=1;align=center;verticalAlign=middle;resizable=0;points=[];" vertex="1" connectable="0" parent="i9YZYnY12w-RiFO6jAS7-13">
          <mxGeometry x="-0.0388" y="1" relative="1" as="geometry">
            <mxPoint x="-1" as="offset" />
          </mxGeometry>
        </mxCell>
        <mxCell id="i9YZYnY12w-RiFO6jAS7-14" value="&lt;b&gt;&lt;font style=&quot;font-size: 14px;&quot;&gt;pondpulse app service&lt;/font&gt;&lt;/b&gt;" style="rounded=1;arcSize=9;align=center;spacingLeft=5;strokeColor=#4C9AFF;html=1;strokeWidth=2;fontSize=12" vertex="1" parent="1">
          <mxGeometry x="341" y="248" width="167.5" height="40" as="geometry" />
        </mxCell>
        <mxCell id="i9YZYnY12w-RiFO6jAS7-15" value="" style="endArrow=classic;html=1;rounded=0;" edge="1" parent="1">
          <mxGeometry width="50" height="50" relative="1" as="geometry">
            <mxPoint x="600" y="376" as="sourcePoint" />
            <mxPoint x="490" y="300" as="targetPoint" />
          </mxGeometry>
        </mxCell>
        <mxCell id="i9YZYnY12w-RiFO6jAS7-19" value="GET API" style="edgeLabel;html=1;align=center;verticalAlign=middle;resizable=0;points=[];" vertex="1" connectable="0" parent="i9YZYnY12w-RiFO6jAS7-15">
          <mxGeometry x="-0.0081" y="-1" relative="1" as="geometry">
            <mxPoint as="offset" />
          </mxGeometry>
        </mxCell>
        <mxCell id="i9YZYnY12w-RiFO6jAS7-16" value="" style="endArrow=classic;html=1;rounded=0;" edge="1" parent="1">
          <mxGeometry width="50" height="50" relative="1" as="geometry">
            <mxPoint x="590" y="400" as="sourcePoint" />
            <mxPoint x="480" y="440" as="targetPoint" />
          </mxGeometry>
        </mxCell>
        <mxCell id="i9YZYnY12w-RiFO6jAS7-20" value="POST API" style="edgeLabel;html=1;align=center;verticalAlign=middle;resizable=0;points=[];" vertex="1" connectable="0" parent="i9YZYnY12w-RiFO6jAS7-16">
          <mxGeometry x="0.0672" y="-1" relative="1" as="geometry">
            <mxPoint as="offset" />
          </mxGeometry>
        </mxCell>
        <mxCell id="i9YZYnY12w-RiFO6jAS7-17" value="&lt;b&gt;&lt;font style=&quot;font-size: 14px;&quot;&gt;Faulty Versions DB&lt;br&gt;&lt;/font&gt;&lt;/b&gt;" style="rounded=1;arcSize=9;align=center;spacingLeft=5;strokeColor=#4C9AFF;html=1;strokeWidth=2;fontSize=12" vertex="1" parent="1">
          <mxGeometry x="358" y="510" width="135" height="32" as="geometry" />
        </mxCell>
        <mxCell id="i9YZYnY12w-RiFO6jAS7-21" value="python flask app" style="rounded=1;whiteSpace=wrap;html=1;" vertex="1" parent="1">
          <mxGeometry x="155" y="430" width="100" height="20" as="geometry" />
        </mxCell>
        <mxCell id="i9YZYnY12w-RiFO6jAS7-22" value="python flask app" style="rounded=1;whiteSpace=wrap;html=1;" vertex="1" parent="1">
          <mxGeometry x="598.75" y="430" width="100" height="20" as="geometry" />
        </mxCell>
        <mxCell id="i9YZYnY12w-RiFO6jAS7-23" value="" style="shape=image;html=1;verticalAlign=top;verticalLabelPosition=bottom;labelBackgroundColor=#ffffff;imageAspect=0;aspect=fixed;image=https://cdn3.iconfinder.com/data/icons/travelling-icon-set/800/helm-128.png" vertex="1" parent="1">
          <mxGeometry x="212.25" y="620" width="108" height="108" as="geometry" />
        </mxCell>
        <mxCell id="i9YZYnY12w-RiFO6jAS7-24" value="&lt;b&gt;main helm chart dependencies&lt;/b&gt;" style="swimlane;fontStyle=0;childLayout=stackLayout;horizontal=1;startSize=30;horizontalStack=0;resizeParent=1;resizeParentMax=0;resizeLast=0;collapsible=1;marginBottom=0;whiteSpace=wrap;html=1;" vertex="1" parent="1">
          <mxGeometry x="337.75" y="600" width="180" height="150" as="geometry">
            <mxRectangle x="180" y="550" width="210" height="30" as="alternateBounds" />
          </mxGeometry>
        </mxCell>
        <mxCell id="i9YZYnY12w-RiFO6jAS7-25" value="postgresql helm chart .tgz" style="text;strokeColor=none;fillColor=none;align=center;verticalAlign=middle;spacingLeft=4;spacingRight=4;overflow=hidden;points=[[0,0.5],[1,0.5]];portConstraint=eastwest;rotatable=0;whiteSpace=wrap;html=1;" vertex="1" parent="i9YZYnY12w-RiFO6jAS7-24">
          <mxGeometry y="30" width="180" height="30" as="geometry" />
        </mxCell>
        <mxCell id="i9YZYnY12w-RiFO6jAS7-26" value="pondpulse helm chart .tgz" style="text;strokeColor=none;fillColor=none;align=center;verticalAlign=middle;spacingLeft=4;spacingRight=4;overflow=hidden;points=[[0,0.5],[1,0.5]];portConstraint=eastwest;rotatable=0;whiteSpace=wrap;html=1;" vertex="1" parent="i9YZYnY12w-RiFO6jAS7-24">
          <mxGeometry y="60" width="180" height="30" as="geometry" />
        </mxCell>
        <mxCell id="i9YZYnY12w-RiFO6jAS7-27" value="flytrap helm chart .tgz" style="text;strokeColor=none;fillColor=none;align=center;verticalAlign=middle;spacingLeft=4;spacingRight=4;overflow=hidden;points=[[0,0.5],[1,0.5]];portConstraint=eastwest;rotatable=0;whiteSpace=wrap;html=1;" vertex="1" parent="i9YZYnY12w-RiFO6jAS7-24">
          <mxGeometry y="90" width="180" height="30" as="geometry" />
        </mxCell>
        <mxCell id="i9YZYnY12w-RiFO6jAS7-28" value="postgribbit helm chart .tgz" style="text;strokeColor=none;fillColor=none;align=center;verticalAlign=middle;spacingLeft=4;spacingRight=4;overflow=hidden;points=[[0,0.5],[1,0.5]];portConstraint=eastwest;rotatable=0;whiteSpace=wrap;html=1;" vertex="1" parent="i9YZYnY12w-RiFO6jAS7-24">
          <mxGeometry y="120" width="180" height="30" as="geometry" />
        </mxCell>
        <mxCell id="i9YZYnY12w-RiFO6jAS7-30" value="k8s secret&lt;br&gt;k8s configmap" style="rounded=1;whiteSpace=wrap;html=1;" vertex="1" parent="1">
          <mxGeometry x="550" y="496" width="100" height="40" as="geometry" />
        </mxCell>
        <mxCell id="i9YZYnY12w-RiFO6jAS7-31" value="hpa" style="rounded=1;whiteSpace=wrap;html=1;" vertex="1" parent="1">
          <mxGeometry x="180" y="450" width="47.5" height="20" as="geometry" />
        </mxCell>
        <mxCell id="i9YZYnY12w-RiFO6jAS7-32" value="hpa" style="rounded=1;whiteSpace=wrap;html=1;" vertex="1" parent="1">
          <mxGeometry x="625" y="450" width="47.5" height="20" as="geometry" />
        </mxCell>
        <mxCell id="i9YZYnY12w-RiFO6jAS7-33" value="hpa" style="rounded=1;whiteSpace=wrap;html=1;" vertex="1" parent="1">
          <mxGeometry x="401" y="288" width="47.5" height="20" as="geometry" />
        </mxCell>
        <mxCell id="i9YZYnY12w-RiFO6jAS7-35" value="" style="endArrow=classic;html=1;rounded=0;" edge="1" parent="1">
          <mxGeometry width="50" height="50" relative="1" as="geometry">
            <mxPoint x="598.75" y="490" as="sourcePoint" />
            <mxPoint x="614.37" y="460" as="targetPoint" />
          </mxGeometry>
        </mxCell>
        <mxCell id="i9YZYnY12w-RiFO6jAS7-36" value="" style="endArrow=classic;html=1;rounded=0;" edge="1" parent="1">
          <mxGeometry width="50" height="50" relative="1" as="geometry">
            <mxPoint x="545.25" y="502" as="sourcePoint" />
            <mxPoint x="493" y="496" as="targetPoint" />
          </mxGeometry>
        </mxCell>
      </root>
    </mxGraphModel>
  </diagram>
</mxfile>
